PathFileType	4	(X/Y/Z)	/Users/itak/Documents/Research/Walk-IL/dataset/trc/00078_00006.trc
DataRate	CameraRate	NumFrames	NumMarkers	Units	OrigDataRate	OrigDataStartFrame	OrigNumFrames
100.000000	100.000000	4	53	mm	100.000000	229	611
Frame#	Time	RPSI			LPSI			L3			STRN			T10			C7			CLAV			RBAK			LBAK			LSHO			LUPA			LAEL			LAOL			LWTS			LWPS			LFRA			LIFD			LHPS			LHTS			RSHO			RUPA			RAEL			RAOL			RWTS			RWPS			RFRA			RIFD			RHTS			RHPS			RBHD			LFHD			RFHD			LBHD			LHIP			RHIP			RASI			LASI			LKNE			LTHI			LANK			LTIP			LTOE			LMT1			LMT5			LHEE			RKNE			RTHI			RANK			RTIP			RTOE			RMT1			RMT5			RHEE			
		X1	Y1	Z1	X2	Y2	Z2	X3	Y3	Z3	X4	Y4	Z4	X5	Y5	Z5	X6	Y6	Z6	X7	Y7	Z7	X8	Y8	Z8	X9	Y9	Z9	X10	Y10	Z10	X11	Y11	Z11	X12	Y12	Z12	X13	Y13	Z13	X14	Y14	Z14	X15	Y15	Z15	X16	Y16	Z16	X17	Y17	Z17	X18	Y18	Z18	X19	Y19	Z19	X20	Y20	Z20	X21	Y21	Z21	X22	Y22	Z22	X23	Y23	Z23	X24	Y24	Z24	X25	Y25	Z25	X26	Y26	Z26	X27	Y27	Z27	X28	Y28	Z28	X29	Y29	Z29	X30	Y30	Z30	X31	Y31	Z31	X32	Y32	Z32	X33	Y33	Z33	X34	Y34	Z34	X35	Y35	Z35	X36	Y36	Z36	X37	Y37	Z37	X38	Y38	Z38	X39	Y39	Z39	X40	Y40	Z40	X41	Y41	Z41	X42	Y42	Z42	X43	Y43	Z43	X44	Y44	Z44	X45	Y45	Z45	X46	Y46	Z46	X47	Y47	Z47	X48	Y48	Z48	X49	Y49	Z49	X50	Y50	Z50	X51	Y51	Z51	X52	Y52	Z52	X53	Y53	Z53	

230	2.29	-1269.800170898438	1036.142578125	546.4810180664062	-1276.966552734375	1022.146240234375	370.40087890625	-1268.36962890625	1088.45166015625	458.2991943359375	-997.86767578125	1271.875854492188	470.7503051757812	-1271.721435546875	1223.854370117188	465.0855712890625	-1194.676391601562	1485.57373046875	481.0346069335938	-1020.507019042969	1388.126708984375	475.3244018554688	-1263.786743164062	1346.649047851562	547.0330810546875	-1220.148071289062	1456.275146484375	377.9584350585938	-1117.457885742188	1459.389404296875	305.1007690429688	-1143.775024414062	1341.492553710938	218.8774261474609	-1139.960327148438	1130.097412109375	177.0165405273438	-1199.288452148438	1110.406127929688	263.6765747070312	-1053.009033203125	884.0101318359375	210.0503845214844	-1118.110107421875	878.62353515625	157.2025451660156	-1125.388061523438	1021.362487792969	158.1891784667969	-1043.848754882812	696.5996704101562	210.6790466308594	-1088.9072265625	798.410888671875	151.0063934326172	-1033.188232421875	801.9486694335938	195.5556335449219	-1131.398803710938	1433.966186523438	652.5349731445312	-1145.579223632812	1363.39404296875	713.2274780273438	-1181.709838867188	1096.52978515625	734.8803100585938	-1168.7119140625	1078.7041015625	636.962890625	-1031.340942382812	852.2310791015625	673.3106689453125	-1097.911254882812	830.1006469726562	725.2843627929688	-1167.344970703125	1014.7578125	736.7108764648438	-1018.73095703125	666.974609375	641.84326171875	-1002.274719238281	754.3433227539062	663.9893188476562	-1055.009033203125	744.115478515625	719.3273315429688	-1156.093017578125	1664.114379882812	437.1344604492188	-963.68701171875	1679.870483398438	533.880615234375	-981.3359375	1684.916381835938	409.1645812988281	-1129.223510742188	1650.967651367188	572.1300659179688	-1169.930297851562	964.6243896484375	277.0914306640625	-1208.735961914062	958.359619140625	621.8158569335938	-1083.314086914062	970.0184326171875	606.5162963867188	-1061.310302734375	969.5368041992188	338.0589294433594	-946.8300170898438	531.051025390625	298.0113220214844	-1022.864074707031	664.3553466796875	272.8551025390625	-1222.221313476562	123.9585113525391	302.4238586425781	-1096.369018554688	312.3260803222656	285.770751953125	-1035.1669921875	63.33430099487305	269.932861328125	-1070.439819335938	65.87754821777344	330.1443176269531	-1139.610961914062	84.08826446533203	245.1029205322266	-1254.588745117188	136.928466796875	387.0443420410156	-1167.717407226562	512.0614013671875	594.353271484375	-1139.693969726562	780.208740234375	628.5961303710938	-1304.397094726562	43.36251449584961	570.7105102539062	-1200.641357421875	389.3472900390625	594.0054321289062	-1089.154541015625	45.87356948852539	536.899169921875	-1148.126953125	49.44626235961914	496.2331237792969	-1180.991821289062	50.0606803894043	588.4774169921875	-1350.202758789062	44.58534622192383	512.2866821289062	
231	2.3	-1266.654541015625	1036.146484375	546.7650756835938	-1273.436157226562	1022.432067871094	370.8066711425781	-1265.022827148438	1088.594116210938	458.8912048339844	-994.1129150390625	1271.643676757812	470.9422912597656	-1268.19287109375	1223.8427734375	466.1211242675781	-1190.593627929688	1485.483642578125	482.1863098144531	-1016.607116699219	1387.8984375	475.6834716796875	-1259.688110351562	1346.61376953125	548.2990112304688	-1216.536865234375	1456.368896484375	379.2528381347656	-1114.199340820312	1459.456665039062	305.9579162597656	-1141.266235351562	1341.8408203125	219.6291656494141	-1138.371215820312	1130.533081054688	177.2758941650391	-1197.271484375	1110.857666015625	264.244873046875	-1052.108032226562	884.078125	209.2729949951172	-1117.492919921875	879.0324096679688	156.7828826904297	-1124.24853515625	1021.787780761719	158.1602935791016	-1043.623779296875	696.5972900390625	209.5474853515625	-1088.42431640625	798.6712036132812	150.3854675292969	-1032.704833984375	801.8992309570312	194.5175018310547	-1126.787841796875	1433.677124023438	653.3785400390625	-1140.737060546875	1362.999877929688	714.0535278320312	-1176.41357421875	1096.087524414062	735.6672973632812	-1163.8427734375	1078.309936523438	637.4974365234375	-1026.6943359375	851.66064453125	673.2337646484375	-1092.908813476562	829.6738891601562	725.67041015625	-1162.102905273438	1014.365356445312	737.384033203125	-1014.569946289062	666.2954711914062	641.8468017578125	-997.84765625	753.6802368164062	663.8108520507812	-1050.178588867188	743.6738891601562	719.5496215820312	-1151.797119140625	1664.28759765625	438.9999694824219	-958.2295532226562	1679.13720703125	533.6389770507812	-977.2532958984375	1684.433959960938	409.1199645996094	-1123.498901367188	1650.84521484375	573.6740112304688	-1166.579223632812	965.2584228515625	277.2069396972656	-1205.904541015625	958.073974609375	621.9725341796875	-1080.400024414062	969.5509643554688	606.9244995117188	-1058.117431640625	969.8641357421875	338.6094360351562	-937.9542846679688	534.7359619140625	297.0487060546875	-1016.388916015625	666.8496704101562	272.218994140625	-1204.4990234375	121.781867980957	304.5947570800781	-1082.96826171875	312.77978515625	286.4845581054688	-1016.180419921875	65.27442932128906	271.5649108886719	-1051.364501953125	67.42761993408203	331.9192810058594	-1121.22705078125	83.71047210693359	247.0664520263672	-1236.747436523438	134.299072265625	389.2288513183594	-1167.031372070312	511.8961181640625	594.9127197265625	-1137.83642578125	779.95947265625	628.9564208984375	-1304.45361328125	43.21764373779297	570.9202880859375	-1200.54833984375	389.439453125	594.4443359375	-1089.240356445312	46.03397369384766	537.6038818359375	-1148.176025390625	49.76073837280273	496.6655883789062	-1181.0751953125	49.68733978271484	588.9364624023438	-1350.168701171875	44.68753814697266	512.3971557617188	
232	2.31	-1263.303344726562	1036.087280273438	547.0276489257812	-1269.751831054688	1022.682922363281	371.1768493652344	-1261.483642578125	1088.708374023438	459.4631652832031	-990.190185546875	1271.398315429688	471.1035766601562	-1264.436157226562	1223.748046875	467.1117248535156	-1186.361694335938	1485.346435546875	483.268310546875	-1012.560852050781	1387.666381835938	476.0017700195312	-1255.442749023438	1346.530639648438	549.5005493164062	-1212.769775390625	1456.412231445312	380.4832153320312	-1110.782470703125	1459.479858398438	306.7634582519531	-1138.61474609375	1342.151611328125	220.3391571044922	-1136.7060546875	1130.944458007812	177.5035552978516	-1195.129760742188	1111.292602539062	264.8093566894531	-1051.193481445312	884.0947265625	208.4053955078125	-1116.901489257812	879.413818359375	156.3055572509766	-1123.078979492188	1022.184143066406	158.0865325927734	-1043.428955078125	696.5517578125	208.3373260498047	-1088.042846679688	798.8983154296875	149.6749267578125	-1032.240478515625	801.7998046875	193.3917846679688	-1122.060668945312	1433.4013671875	654.1626586914062	-1135.800903320312	1362.622680664062	714.8189697265625	-1171.071533203125	1095.675537109375	736.3124389648438	-1158.8076171875	1077.958251953125	637.893310546875	-1021.861022949219	851.1593627929688	673.1217041015625	-1087.791625976562	829.281982421875	725.9412231445312	-1156.806762695312	1014.0107421875	737.9247436523438	-1010.149719238281	665.7032470703125	641.8059692382812	-993.1549682617188	753.123779296875	663.6136474609375	-1045.195678710938	743.2825927734375	719.6878662109375	-1147.3388671875	1664.432373046875	440.8046875	-952.6348876953125	1678.36474609375	533.2708740234375	-973.0626220703125	1683.902099609375	408.9868774414062	-1117.5986328125	1650.684936523438	575.1251220703125	-1163.0263671875	965.8554077148438	277.318603515625	-1202.825805664062	957.7403564453125	622.0909423828125	-1077.2578125	969.052734375	607.2492065429688	-1054.757690429688	970.1693725585938	339.0848999023438	-929.7192993164062	538.1039428710938	296.2149658203125	-1010.269958496094	669.0903930664062	271.6929931640625	-1185.520874023438	118.4898071289062	306.5545349121094	-1069.25244140625	312.5477294921875	287.1304016113281	-995.7647094726562	67.0040283203125	273.1899719238281	-1030.897216796875	68.62247467041016	333.6228332519531	-1101.403930664062	82.57558441162109	248.9087219238281	-1217.767333984375	130.4149017333984	391.1645812988281	-1166.284545898438	511.7317504882812	595.3346557617188	-1135.777099609375	779.690185546875	629.236328125	-1304.509765625	43.09589767456055	571.1127319335938	-1200.433837890625	389.5398864746094	594.8094482421875	-1089.351440429688	46.24241638183594	538.2688598632812	-1148.236450195312	50.09822082519531	497.075439453125	-1181.155151367188	49.35059356689453	589.357666015625	-1350.22509765625	44.90132141113281	512.3995971679688	
233	2.32	-1259.744750976562	1035.94775390625	547.2594604492188	-1265.953979492188	1022.854125976562	371.4935913085938	-1257.762573242188	1088.772216796875	460.0221557617188	-986.114013671875	1271.109008789062	471.2290649414062	-1260.450317382812	1223.568969726562	468.069580078125	-1181.978515625	1485.144409179688	484.2803955078125	-1008.3681640625	1387.406372070312	476.27392578125	-1251.050903320312	1346.388305664062	550.6395874023438	-1208.84814453125	1456.389282226562	381.6482543945312	-1107.208129882812	1459.440795898438	307.5152282714844	-1135.821655273438	1342.406372070312	221.0032348632812	-1134.956420898438	1131.315063476562	177.7042236328125	-1192.850463867188	1111.689331054688	265.3761596679688	-1050.25	884.0421142578125	207.4435119628906	-1116.317626953125	879.7548217773438	155.7652587890625	-1121.871826171875	1022.539611816406	157.9635009765625	-1043.267944335938	696.4511108398438	207.0316162109375	-1087.766723632812	799.0850830078125	148.8520965576172	-1031.77099609375	801.6395263671875	192.1737670898438	-1117.205810546875	1433.114624023438	654.887939453125	-1130.751220703125	1362.246826171875	715.52783203125	-1165.7001953125	1095.279663085938	736.8278198242188	-1153.651733398438	1077.628295898438	638.1793823242188	-1016.843688964844	850.71435546875	672.9722290039062	-1082.55859375	828.9078979492188	726.0946655273438	-1151.465087890625	1013.667358398438	738.3497314453125	-1005.469543457031	665.1957397460938	641.7052001953125	-988.212158203125	752.6560668945312	663.3838500976562	-1040.050048828125	742.9152221679688	719.733642578125	-1142.728149414062	1664.514404296875	442.5467834472656	-946.9219360351562	1677.539794921875	532.7819213867188	-968.772216796875	1683.305541992188	408.7705688476562	-1111.535034179688	1650.459228515625	576.4801635742188	-1159.292602539062	966.3656005859375	277.4224548339844	-1199.495239257812	957.3448486328125	622.1755981445312	-1073.87890625	968.5111694335938	607.4774780273438	-1051.240234375	970.4180297851562	339.4657897949219	-922.0597534179688	541.1050415039062	295.5662231445312	-1004.437377929688	671.0156860351562	271.2901306152344	-1165.415405273438	114.2913208007812	308.2543640136719	-1055.255737304688	311.7171936035156	287.7059631347656	-974.1337280273438	68.59419250488281	274.7815246582031	-1009.249084472656	69.54705047607422	335.220703125	-1080.312744140625	80.84963989257812	250.5886840820312	-1197.774169921875	125.503044128418	392.8218994140625	-1165.45556640625	511.5578002929688	595.620849609375	-1133.495483398438	779.3815307617188	629.421142578125	-1304.563354492188	42.9970703125	571.2814331054688	-1200.251220703125	389.6366882324219	595.0933227539062	-1089.47265625	46.47648239135742	538.8707885742188	-1148.298706054688	50.43408203125	497.4443664550781	-1181.228393554688	49.05226135253906	589.7372436523438	-1350.355834960938	45.2115364074707	512.309326171875	
